<?xml version="1.0" standalone="no"?>
<!DOCTYPE svg PUBLIC "-//W3C//DTD SVG 20010904//EN"
 "http://www.w3.org/TR/2001/REC-SVG-20010904/DTD/svg10.dtd">
<svg version="1.0" xmlns="http://www.w3.org/2000/svg"
 width="1280.000000pt" height="1280.000000pt" viewBox="0 0 1280.000000 1280.000000"
 preserveAspectRatio="xMidYMid meet">
<metadata>
Created by potrace 1.11, written by Peter Selinger 2001-2013
</metadata>
<g transform="translate(0.000000,1280.000000) scale(0.100000,-0.100000)"
fill="#000000" stroke="none">
<path d="M6539 8946 c-3 -3 -39 -8 -80 -11 -90 -7 -282 -45 -403 -80 -400
-116 -765 -333 -1066 -635 -205 -204 -350 -406 -479 -666 -54 -110 -131 -299
-131 -324 0 -5 11 -10 24 -10 13 0 37 -3 53 -6 29 -6 30 -5 63 83 52 137 163
352 250 481 234 350 551 628 928 815 306 151 595 228 925 246 330 17 657 -29
943 -135 55 -20 106 -37 114 -38 8 -1 27 -10 42 -20 14 -9 36 -18 47 -19 12
-1 21 -4 21 -7 0 -4 16 -14 36 -23 24 -12 33 -13 29 -5 -4 7 -1 6 7 -3 13 -15
70 -49 85 -50 5 0 16 -8 26 -16 9 -9 17 -12 17 -8 0 4 9 0 20 -10 11 -10 20
-13 20 -7 0 7 -5 12 -11 12 -5 0 -8 4 -5 8 2 4 1 14 -4 22 -7 12 -11 12 -26
-1 -16 -13 -17 -12 -11 5 4 10 2 25 -5 34 -11 13 -10 15 4 9 12 -4 15 -2 11 8
-3 8 -9 13 -13 10 -4 -3 -13 2 -20 10 -10 12 -16 13 -28 3 -13 -11 -15 -10 -9
6 4 10 2 25 -4 32 -13 16 -33 19 -24 4 3 -5 2 -10 -4 -10 -5 0 -13 9 -16 21
-7 22 -42 22 -37 -1 3 -11 0 -11 -12 -1 -8 7 -21 9 -27 5 -8 -5 -9 -3 -5 5 5
7 14 10 22 7 19 -7 29 13 14 27 -10 9 -11 9 -6 -3 4 -8 1 -7 -7 3 -11 14 -16
15 -20 5 -3 -8 -6 -6 -6 6 -1 13 -6 17 -21 13 -11 -3 -18 -2 -15 3 6 10 -35
29 -144 70 -153 56 -387 111 -541 127 -85 8 -514 16 -521 9z m1225 -284 c2 -4
-5 -9 -17 -9 -17 -2 -19 0 -7 7 18 12 18 12 24 2z m93 -24 c-3 -8 -6 -5 -6 6
-1 11 2 17 5 13 3 -3 4 -12 1 -19z m53 0 c0 -6 -3 -8 -7 -5 -3 4 -13 1 -22 -6
-14 -11 -14 -10 -2 6 15 20 31 22 31 5z m-14 -43 c-1 -30 -2 -31 -17 -4 -8 15
-8 19 0 15 6 -4 11 -2 11 3 0 6 2 11 4 11 2 0 3 -11 2 -25z m59 -3 c-3 -3 0
-11 7 -19 6 -7 8 -16 4 -20 -3 -3 -6 0 -6 8 0 12 -2 11 -11 -1 -8 -11 -12 -12
-16 -2 -2 6 -8 10 -12 8 -4 -3 -8 5 -8 17 -2 20 -1 20 8 5 6 -10 15 -18 21
-18 9 0 9 3 0 12 -7 7 -12 18 -12 26 0 12 3 12 15 2 9 -7 13 -15 10 -18z m49
-60 c3 -5 -1 -9 -9 -9 -8 0 -12 4 -9 9 3 4 7 8 9 8 2 0 6 -4 9 -8z"/>
<path d="M8045 8500 c-8 -13 3 -30 18 -29 9 0 9 2 0 6 -7 2 -13 9 -13 14 0 6
5 7 12 3 7 -4 8 -3 4 4 -9 15 -13 15 -21 2z"/>
<path d="M4160 7139 c-159 -24 -276 -85 -400 -209 -131 -131 -190 -248 -212
-426 -40 -314 117 -610 399 -753 101 -52 199 -72 348 -72 120 1 138 3 213 30
108 39 164 71 235 131 131 112 210 235 248 390 28 112 23 310 -11 410 -63 187
-198 343 -371 431 -119 60 -311 89 -449 68z m241 -319 c249 -77 372 -351 264
-588 -13 -29 -50 -80 -81 -113 -210 -219 -556 -165 -691 109 -37 74 -38 79
-38 181 1 146 23 201 119 297 39 38 89 79 111 89 102 48 214 57 316 25z"/>
<path d="M9190 6189 c0 -5 5 -7 10 -4 6 3 10 8 10 11 0 2 -4 4 -10 4 -5 0 -10
-5 -10 -11z"/>
<path d="M9170 6162 c0 -5 7 -9 15 -9 8 0 12 4 9 9 -3 4 -9 8 -15 8 -5 0 -9
-4 -9 -8z"/>
<path d="M9190 6129 c0 -5 5 -7 10 -4 6 3 10 8 10 11 0 2 -4 4 -10 4 -5 0 -10
-5 -10 -11z"/>
<path d="M9175 6106 c2 -17 -1 -36 -7 -43 -6 -7 -6 -13 -1 -13 5 0 9 -9 10
-21 2 -17 -1 -18 -13 -9 -10 9 -14 9 -14 1 0 -6 5 -11 10 -11 6 0 10 -4 10
-10 0 -5 -6 -8 -12 -6 -7 1 -10 1 -5 -1 4 -3 5 -10 1 -16 -5 -11 4 -1 46 50 6
7 4 13 -5 17 -8 3 -15 10 -15 16 0 8 7 7 23 0 20 -10 20 -10 5 3 -18 14 -25
33 -10 23 5 -3 9 1 9 9 0 8 -4 12 -8 9 -4 -2 -13 4 -18 13 -9 15 -10 13 -6
-11z"/>
<path d="M9197 6003 c-4 -3 -7 -11 -7 -17 0 -6 5 -5 12 2 6 6 9 14 7 17 -3 3
-9 2 -12 -2z"/>
<path d="M9165 5960 c-4 -6 -11 -8 -16 -5 -5 3 -6 -2 -2 -11 5 -13 3 -15 -7
-9 -9 6 -11 4 -6 -4 5 -7 0 -21 -11 -33 -10 -12 -13 -19 -8 -15 6 3 17 1 25
-5 13 -8 13 -9 -1 -5 -18 6 -43 -7 -45 -23 -1 -5 -2 -15 -3 -22 0 -6 -4 -9 -7
-5 -4 3 -24 -46 -46 -111 -170 -511 -498 -946 -932 -1241 -99 -67 -280 -171
-297 -171 -5 0 -9 -3 -9 -6 0 -8 60 -94 65 -94 10 0 192 104 260 148 274 176
561 463 737 737 65 101 138 235 188 345 42 94 112 294 125 357 6 29 4 32 -11
26 -16 -6 -17 -5 -4 9 8 9 19 13 24 10 5 -3 6 0 2 6 -4 6 -2 21 5 33 6 12 7
19 1 15 -5 -3 -9 5 -9 19 0 15 4 22 11 18 6 -3 2 4 -9 17 l-20 23 25 -7 c19
-6 21 -5 10 3 -19 13 -27 14 -35 1z m7 -32 c-6 -6 -8 -17 -5 -24 3 -8 -1 -14
-11 -14 -20 0 -21 14 -1 33 8 8 11 18 7 22 -4 5 -1 5 6 0 9 -5 10 -11 4 -17z
m2 -63 c-4 -8 -11 -15 -16 -15 -6 0 -5 6 2 15 7 8 14 15 16 15 2 0 1 -7 -2
-15z"/>
<path d="M4421 5548 c128 -330 314 -612 569 -868 410 -411 934 -662 1508 -721
133 -14 520 -7 630 11 79 14 80 15 61 83 -10 37 -12 39 -42 33 -177 -31 -499
-36 -691 -11 -608 80 -1139 374 -1541 850 -132 158 -304 444 -378 633 l-17 42
-60 0 -60 0 21 -52z"/>
<path d="M7432 4357 c-44 -14 -115 -78 -136 -122 -10 -19 -21 -61 -26 -92 -14
-86 9 -153 74 -218 57 -56 103 -75 186 -75 83 0 129 19 186 75 36 36 54 64 63
98 16 54 10 178 -9 217 -15 33 -99 101 -142 116 -40 15 -151 16 -196 1z m175
-117 c45 -27 66 -63 70 -123 4 -61 -19 -106 -69 -137 -69 -42 -166 -17 -208
52 -42 69 -17 166 52 208 43 26 113 26 155 0z"/>
</g>
</svg>
