<?xml version="1.0" encoding="utf-8"?>
<!-- Generator: Adobe Illustrator 23.0.2, SVG Export Plug-In . SVG Version: 6.00 Build 0)  -->
<svg version="1.1" id="Capa_1" xmlns="http://www.w3.org/2000/svg" xmlns:xlink="http://www.w3.org/1999/xlink" x="0px" y="0px"
	 viewBox="0 0 200 200" style="enable-background:new 0 0 200 200;" xml:space="preserve">
<style type="text/css">
	.st0{fill:#FEFEFE;}
	.st1{fill:#33BBCB;}
	.st2{fill:#0195A5;}
	.st3{fill:#D2D5D3;}
	.st4{fill:#BCBCBC;}
</style>
<g>
	<path class="st0" d="M203-2.63c0-1.71-0.39-1.98-2.02-1.98C133.64-4.56,66.29-4.56-1.05-4.61c-1.71,0-1.98,0.39-1.98,2.02
		c0.05,67.34,0.05,134.68-0.01,202.02c0,1.71,0.39,1.98,2.02,1.98c33.67-0.06,67.34-0.04,101.01-0.04s67.34-0.02,101.01,0.05
		c1.71,0,1.98-0.39,1.98-2.03C202.94,132.05,202.94,64.71,203-2.63z M178.75,175.31c-9.61-0.08-19.23,0.07-28.84,0.09
		c-0.9,0-1.95,0.47-2.72-0.46v0c-2.5-2.44-4.95-4.94-7.51-7.31c-1.01-0.94-0.88-2.02-0.88-3.13c0-18.56,0-37.13,0-55.69
		c0-1.06-0.02-2.12-0.04-3.17l0,0c-3.35,6.11-6.72,12.21-10.03,18.34c-3.7,6.85-7.35,13.73-11.02,20.6
		c-0.35,1.21-1.36,0.96-2.22,0.96c-10.09,0.01-20.18-0.03-30.27,0.05c-1.57,0.01-2.35-0.63-3.03-1.88
		c-7.36-13.58-14.72-27.15-22.15-40.69c-0.65-1.19-0.8-2.85-2.46-3.34c0,0,0,0,0,0c0,0,0,0,0,0c1.12,18.02,2.24,36.04,3.36,54.06
		c0.22,3.49,0.3,6.99,0.67,10.47c0.22,2.1-0.63,3.26-2.34,4.25c-6.02,3.5-12.62,5.07-19.42,5.99c-3.62,0.49-7.27,0.76-10.94,0.59
		c-2.83,0.52-5.68,0.11-8.52,0.25c-1.04,0.05-1.51-0.37-1.44-1.41c0.02-0.32-0.01-0.65-0.01-0.98c0-48.57,0-97.13,0-145.7
		c0-0.33,0.03-0.65,0.05-0.98c-0.05-1.02,0.69-0.89,1.33-0.94c11.66-0.99,23.31-1.97,34.96-2.97c3.56-0.3,7.13-0.57,10.67-0.98
		c1.66-0.19,2.42,0.36,3.04,1.94c10.17,25.79,20.42,51.56,30.64,77.34c0.27,0.67,0.37,1.42,1,1.9c0,0,0,0,0,0c0,0,0,0,0,0
		c10.12-24.63,20.28-49.24,30.3-73.92c1.02-2.51,2.19-3.34,4.92-3.31c14.41,0.16,28.81,0.06,43.22,0.11c0.89,0,2.58-0.82,2.29,1.37
		c0,0,0,0,0,0c0,0,0,0,0,0c0.04,1.87,0.11,3.74,0.11,5.62c0.01,46.71-0.01,93.41,0.05,140.12
		C181.55,174.7,181.02,175.33,178.75,175.31z"/>
	<path class="st1" d="M103.38,108.11c-0.74-1.93-1.07-4.1-2.72-5.61c0.21,0.7,0.36,1.42,0.63,2.09c4.7,11.89,9.39,23.79,14.14,35.66
		c0.6,1.5,0.73,3.3,2.28,4.31c-0.47-0.94-0.69-1.98-1.06-2.96C112.39,130.38,107.69,119.32,103.38,108.11z"/>
	<path class="st2" d="M40.76,68.03c3.45,6.56,6.97,13.09,10.42,19.65c1.96,3.73,4.43,7.24,5.59,11.37c0.07,0.14,0.14,0.26,0.24,0.37
		c0.06-0.1,0.12-0.19,0.18-0.29c0,0,0,0,0,0c0.24-1.14-0.32-2.04-0.82-2.98c-10.47-19.78-20.9-39.57-31.43-59.32
		c-1.9-3.57-3.41-7.37-5.92-10.6c0.48,1.11,0.9,2.25,1.46,3.33C27.1,42.44,34.01,55.19,40.76,68.03z"/>
	<path class="st2" d="M180.94,27.2C180.94,27.2,180.94,27.2,180.94,27.2c0.01,0.15,0,0.29,0.01,0.44c0.14-0.3,0.26-0.61,0.45-0.89
		C181.24,26.9,181.09,27.05,180.94,27.2C180.94,27.2,180.94,27.2,180.94,27.2z"/>
	<path class="st3" d="M55.73,102.96c-11.23,22.43-22.43,44.88-33.67,67.31c-0.22,0.44-0.44,0.87-0.66,1.31
		c-1.25,2.57-1.16,2.62,1.62,2.78c1.97,0.11,4.07-0.69,5.9,0.66c3.67,0.17,7.31-0.1,10.94-0.59c6.8-0.92,13.39-2.5,19.42-5.99
		c1.71-1,2.56-2.15,2.34-4.25c-0.37-3.47-0.45-6.98-0.67-10.47c-1.12-18.02-2.24-36.04-3.36-54.06c0,0,0,0,0,0
		c-0.2,0-0.35-0.06-0.48-0.16C56.88,100.75,56.28,101.84,55.73,102.96z"/>
	<path class="st3" d="M57.19,99.12c-0.02,0.14-0.06,0.26-0.08,0.39c0.12,0.1,0.27,0.16,0.48,0.16
		C57.45,99.48,57.32,99.3,57.19,99.12L57.19,99.12z"/>
	<path class="st3" d="M23.02,174.36c-2.77-0.16-2.87-0.22-1.62-2.78c0.21-0.44,0.44-0.87,0.66-1.31
		c11.24-22.43,22.43-44.88,33.67-67.31c0.56-1.11,1.15-2.21,1.38-3.44c-0.04-0.03-0.07-0.06-0.1-0.1c-0.41,0.65-0.84,1.3-1.19,1.98
		c-5.25,10.47-10.49,20.95-15.72,31.43c-6.58,13.17-13.17,26.34-19.75,39.52c-1.21,2.43-1.12,2.57,1.5,2.6
		c2.36,0.03,4.72,0.06,7.08,0.09C27.09,173.68,24.99,174.48,23.02,174.36z"/>
	<path class="st3" d="M57.11,99.51c0.02-0.13,0.07-0.26,0.08-0.39c-0.06,0.1-0.12,0.19-0.18,0.29
		C57.04,99.45,57.07,99.48,57.11,99.51z"/>
	<path class="st4" d="M147.01,174.16c0.07-0.25,0.15-0.49,0.22-0.74c0.22-6.9-0.2-13.79-0.64-20.65
		c-0.59-9.19-1.15-18.39-2.23-27.55c-0.89-7.54-1.75-15.08-3.06-22.56c-0.03-0.15-0.08-0.29-0.15-0.44c-0.7,1.21-1.22,2.53-2.4,3.41
		c0.01,1.06,0.04,2.12,0.04,3.17c0,18.56,0,37.13,0,55.69c0,1.12-0.14,2.2,0.88,3.13c2.56,2.37,5.02,4.86,7.51,7.31v0l0,0
		C147.05,174.7,146.99,174.44,147.01,174.16z"/>
	<path class="st4" d="M141.16,102.22c-0.1-0.21-0.21-0.42-0.31-0.64c-0.64,1.38-1.78,2.5-2.09,4.05l0,0
		C139.93,104.75,140.46,103.43,141.16,102.22z"/>
	<path class="st4" d="M147.23,173.42c-0.07,0.25-0.15,0.49-0.22,0.74c-0.02,0.28,0.04,0.54,0.18,0.78l0,0c0-0.17,0.01-0.33,0.01-0.5
		C147.22,174.1,147.22,173.76,147.23,173.42z"/>
	<path class="st3" d="M141.39,101.83c0,0-0.01,0.01-0.01,0.01c1.01,0.67,0.87,1.94,1.05,2.97c1.3,7.13,2.15,14.32,2.86,21.53
		c1.36,13.92,2.3,27.86,2.65,41.84c0.03,1.17-0.03,2.33-0.18,3.48c2.28-7.58,4.88-15.06,7.13-22.65
		c5.67-19.13,10.77-38.4,15.05-57.89c3.7-16.86,6.83-33.83,9.09-50.95c0.47-3.54,1.35-7.04,1.27-10.65
		c-0.01-0.25,0.02-0.5,0.06-0.75c-7.17,13.71-14.6,27.28-21.87,40.94C152.78,80.41,146.95,91.05,141.39,101.83z"/>
	<path class="st3" d="M141.38,101.84c0,0,0.01-0.01,0.01-0.01c5.56-10.78,11.39-21.42,17.09-32.13
		c7.27-13.66,14.7-27.23,21.87-40.94c0.08-0.55,0.27-1.09,0.59-1.57c-0.95,0.51-1.17,1.52-1.62,2.36
		c-5.55,10.39-11.09,20.79-16.64,31.19c-7.27,13.62-14.55,27.23-21.83,40.84c0,0,0,0,0,0c0,0,0,0,0,0
		C141.06,101.65,141.23,101.74,141.38,101.84z"/>
	<path class="st3" d="M180.35,28.77c-0.04,0.25-0.06,0.5-0.06,0.75c0.08,3.61-0.8,7.11-1.27,10.65
		c-2.26,17.12-5.39,34.09-9.09,50.95c-4.28,19.49-9.37,38.76-15.05,57.89c-2.25,7.59-4.84,15.07-7.13,22.65
		c-0.12,0.93-0.3,1.86-0.56,2.78c0.47-1.02,1.05-2,1.39-3.06c4.47-13.97,8.81-27.98,12.66-42.15c4.48-16.49,8.43-33.09,11.86-49.82
		c2.22-10.84,4.17-21.74,5.72-32.7c0.89-6.32,2.33-12.62,2.11-19.07c-0.01,0.02-0.02,0.04-0.03,0.06
		C180.73,28.05,180.54,28.41,180.35,28.77z"/>
	<path class="st3" d="M180.94,27.2c-0.32,0.48-0.5,1.02-0.59,1.57c0.19-0.36,0.38-0.71,0.56-1.07c0.01-0.02,0.02-0.04,0.03-0.06
		C180.94,27.49,180.94,27.34,180.94,27.2C180.94,27.2,180.94,27.2,180.94,27.2z"/>
	<path class="st3" d="M147.94,168.18c-0.35-13.98-1.29-27.93-2.65-41.84c-0.7-7.2-1.56-14.4-2.86-21.53
		c-0.19-1.03-0.04-2.3-1.05-2.97c-0.08,0.12-0.15,0.25-0.23,0.38c0.06,0.14,0.12,0.29,0.15,0.44c1.31,7.48,2.17,15.02,3.06,22.56
		c1.08,9.16,1.64,18.36,2.23,27.55c0.44,6.86,0.86,13.75,0.64,20.65c0.17-0.59,0.36-1.17,0.53-1.76
		C147.92,170.51,147.97,169.35,147.94,168.18z"/>
	<path class="st3" d="M140.85,101.58C140.85,101.58,140.85,101.58,140.85,101.58c0.09,0.21,0.21,0.42,0.31,0.64
		c0.07-0.13,0.15-0.25,0.23-0.38C141.23,101.74,141.06,101.65,140.85,101.58z"/>
	<path class="st3" d="M147.23,173.42c-0.01,0.34-0.02,0.68-0.03,1.02c0.27-0.92,0.44-1.84,0.56-2.78
		C147.59,172.25,147.41,172.83,147.23,173.42z"/>
</g>
</svg>
