<?xml version="1.0" encoding="utf-8"?>
<!-- Generator: Adobe Illustrator 23.0.2, SVG Export Plug-In . SVG Version: 6.00 Build 0)  -->
<svg version="1.1" id="Capa_1" xmlns="http://www.w3.org/2000/svg" xmlns:xlink="http://www.w3.org/1999/xlink" x="0px" y="0px"
	 viewBox="0 0 200 200" style="enable-background:new 0 0 200 200;" xml:space="preserve">
<style type="text/css">
	.st0{fill:#5C5C5F;}
	.st1{fill:#FFFFFF;}
</style>
<g>
	<path class="st0" d="M65.25,55.36c-0.07-0.01-0.14-0.01-0.21-0.02c0.01-0.11-0.04-0.31,0.09-0.31
		C65.34,55.03,65.25,55.23,65.25,55.36z"/>
	<g>
		<path class="st1" d="M205.94,0.7c0-1.15,0-1.15-1.13-1.15c-20.68,0.05-41.37,0.02-62.05,0.06C93.88-0.31,45.01-0.36-3.87-0.36
			c-1.22,0-1.22,0-1.22,1.25c0,66.33,0,132.66,0,198.99c0,1.2,0,1.2,1.17,1.2c34.78,0,69.56,0,104.34,0c34.78,0,69.56,0,104.34,0
			c1.17,0,1.17,0,1.17-1.2C205.94,133.48,205.94,67.09,205.94,0.7z M105.57,144.12c-4.83-0.04-9.67-0.02-14.5-0.02
			c-0.19,0-0.38,0-0.56,0c-0.93-0.03-1.35-0.34-1.6-1.25c-0.93-3.34-1.84-6.68-2.76-10.01c-0.52-1.9-0.98-3.82-1.57-5.69
			c-1.18-3.72-2.09-7.52-3.16-11.27c-0.28-0.96-0.27-0.97-1.23-0.97c-9.6,0-19.21,0-28.81,0c-0.16,0-0.31,0.01-0.47,0
			c-0.39-0.04-0.53,0.15-0.63,0.52c-0.4,1.6-0.79,3.22-1.28,4.79c-1.23,3.93-2.14,7.94-3.23,11.91c-0.63,2.29-1.19,4.59-1.84,6.87
			c-0.39,1.35-0.78,2.69-1.14,4.05c-0.23,0.86-0.49,1.05-1.41,1.05c-4.71,0.01-9.42,0.01-14.12,0c-0.93,0-1.2-0.3-1.01-1.22
			c0.23-1.07,0.56-2.11,0.85-3.16c0.35-1.26,0.67-2.54,1.07-3.78c1.88-5.79,3.31-11.7,5.12-17.51c1.76-5.66,3.23-11.41,4.98-17.07
			c1.84-5.96,3.39-12,5.23-17.96c1.75-5.69,3.24-11.47,4.99-17.16c1.76-5.69,3.28-11.45,4.99-17.16c0.49-1.65,0.8-3.32,0.86-5.05
			c0.03-0.75,0.08-1.5,0.12-2.24c0.06-1.16,0.21-1.28,1.34-1.28c3.23,0,6.47,0,9.7,0c3.23,0,6.47,0,9.7,0
			c1.02,0,1.17,0.12,1.45,1.09c0.71,2.43,1.37,4.87,2.14,7.27c1.88,5.82,3.43,11.74,5.28,17.57c1.74,5.47,3.21,11.02,4.95,16.49
			c1.84,5.76,3.38,11.62,5.22,17.38c1.76,5.53,3.25,11.13,5.02,16.65c1.77,5.56,3.28,11.19,5.04,16.76c0.9,2.86,1.7,5.75,2.63,8.6
			C107.42,143.82,107.09,144.14,105.57,144.12z M171.94,100.61c-0.11,2.21-0.13,4.43-0.66,6.6c-0.29,1.17-0.56,1.5-1.72,1.64
			c-1.33,0.16-2.67,0.26-4.02,0.32c-11.98,0.55-23.96,0.16-35.94,0.28c-0.19,0-0.38-0.01-0.56,0.01c-0.22,0.02-0.34,0.13-0.31,0.36
			c0.19,1.64,0.19,3.3,0.52,4.93c0.72,3.5,1.93,6.79,4.28,9.54c1.84,2.16,4.12,3.72,6.79,4.69c2.52,0.92,5.12,1.35,7.8,1.48
			c4.28,0.2,8.5-0.2,12.65-1.27c1.42-0.37,2.8-0.87,4.15-1.44c1.1-0.46,1.65-0.56,1.6,1.05c-0.05,1.82-0.01,3.64-0.01,5.46
			c0,1.88-0.02,3.77,0.01,5.65c0.02,1.06-0.41,1.76-1.39,2.21c-3.24,1.49-6.65,2.35-10.17,2.84c-3.33,0.47-6.67,0.63-10.02,0.55
			c-3.16-0.07-6.29-0.45-9.36-1.25c-3.69-0.96-7.12-2.47-10.25-4.68c-1.67-1.19-3.13-2.57-4.54-4.03c-2.01-2.09-3.54-4.52-4.83-7.1
			c-2-3.97-3.26-8.17-3.88-12.57c-0.27-1.92-0.44-3.84-0.58-5.77c-0.14-1.94-0.15-3.89-0.07-5.82c0.2-4.72,0.84-9.39,2.28-13.91
			c1.32-4.16,3.12-8.11,5.69-11.66c1.45-2,3.08-3.87,4.97-5.48c4.69-4,10.13-6.27,16.26-6.82c4.49-0.4,8.93-0.03,13.23,1.46
			c4.52,1.57,8.22,4.26,11.22,7.98c2.52,3.12,4.07,6.7,5.27,10.48c0.79,2.48,1.22,5.01,1.48,7.59
			C172.05,96.17,172.05,98.4,171.94,100.61z"/>
		<path class="st1" d="M70.2,74.74c-0.88-3.48-1.93-6.91-2.79-10.39c-0.74-2.99-1.44-6-2.17-9c-0.06-0.11-0.13-0.11-0.21-0.02
			c-0.63,2.46-1.07,4.96-1.67,7.43c-1.81,7.39-3.64,14.77-5.69,22.09c-1.27,4.53-2.45,9.1-3.66,13.65
			c-0.05,0.19-0.18,0.41,0.01,0.59c7.56,0,15.11,0,22.64,0c0.02-0.11,0.06-0.18,0.04-0.23c-1.14-4.09-2.12-8.21-3.32-12.28
			C72.24,82.66,71.21,78.7,70.2,74.74z"/>
		<path class="st1" d="M154.72,91.36c-0.26-1.89-0.8-3.71-1.66-5.43c-1.36-2.72-3.43-4.65-6.3-5.67c-1.82-0.65-3.71-0.77-5.63-0.6
			c-2.78,0.24-5.17,1.34-7.22,3.21c-0.96,0.87-1.72,1.91-2.35,3.03c-1.73,3.08-2.77,6.38-3.11,9.93c0.2,0.01,0.39,0.03,0.57,0.03
			c7.75,0,15.5,0,23.25,0c0.66,0,1.31-0.05,1.97-0.1c0.29-0.02,0.46-0.1,0.54-0.48c0.17-0.79,0.34-1.53,0.2-2.37
			C154.9,92.39,154.79,91.88,154.72,91.36z"/>
	</g>
</g>
</svg>
